<svg xmlns="http://www.w3.org/2000/svg" viewBox="2642 388.652 33.892 33.892">
  <defs>
    <style>
      .cls-1 {
        fill: #dd4b39;
      }

      .cls-2 {
        fill: #fff;
        fill-rule: evenodd;
      }
    </style>
  </defs>
  <g id="Group_3" data-name="Group 3" transform="translate(2642 388.652)">
    <ellipse id="Oval-1-Copy-6" class="cls-1" cx="16.946" cy="16.946" rx="16.946" ry="16.946" transform="translate(0 0)"/>
    <path id="Fill-186" class="cls-2" d="M17.015,29.261A5.522,5.522,0,0,1,22.533,24a5.6,5.6,0,0,1,3.7,1.367,19.669,19.669,0,0,1-1.4,1.454,3.646,3.646,0,0,0-4.3-.114,3.548,3.548,0,0,0-.151,5.526c1.683,1.528,4.863.769,5.328-1.571-1.054-.016-2.111,0-3.164-.034,0-.629-.005-1.259,0-1.888,1.762-.005,3.524-.008,5.288.005a6.354,6.354,0,0,1-1,4.281,5.456,5.456,0,0,1-6.294,1.674,5.542,5.542,0,0,1-3.513-5.444" transform="translate(-8.769 -12.38)"/>
    <path id="Fill-187" class="cls-2" d="M45.593,31h1.572c0,.526.005,1.055.011,1.581.526.005,1.054.005,1.58.011v1.573l-1.58.013q-.008.793-.011,1.581H45.59c-.005-.526-.005-1.052-.011-1.579L44,34.165V32.592q.788-.008,1.58-.011c0-.529.008-1.055.013-1.581" transform="translate(-22.697 -15.991)"/>
  </g>
</svg>
